<?xml version="1.0" encoding="UTF-8"?>
<!DOCTYPE svg PUBLIC "-//W3C//DTD SVG 1.1//EN" "http://www.w3.org/Graphics/SVG/1.1/DTD/svg11.dtd">
<svg xmlns="http://www.w3.org/2000/svg" version="1.1" width="40px" height="40px" style="shape-rendering:geometricPrecision; text-rendering:geometricPrecision; image-rendering:optimizeQuality; fill-rule:evenodd; clip-rule:evenodd" xmlns:xlink="http://www.w3.org/1999/xlink">
<g><path style="opacity:0.173" fill="#cd4d4d" d="M 18.5,-0.5 C 19.1667,-0.5 19.8333,-0.5 20.5,-0.5C 22.5311,0.538701 23.8645,2.20537 24.5,4.5C 24.5,4.83333 24.5,5.16667 24.5,5.5C 23.5,5.5 22.5,5.5 21.5,5.5C 19.1707,3.99763 17.8373,4.6643 17.5,7.5C 15.8212,7.28519 14.8212,7.95186 14.5,9.5C 14.1667,9.5 13.8333,9.5 13.5,9.5C 13.2872,5.09014 14.9539,1.75681 18.5,-0.5 Z"/></g>
<g><path style="opacity:1" fill="#bdb0db" d="M 22.5,25.5 C 26.261,27.2752 27.5943,26.2752 26.5,22.5C 25.1401,23.1799 23.8068,23.8466 22.5,24.5C 20.2543,25.4552 17.921,26.1218 15.5,26.5C 15.6509,21.2544 14.6509,16.2544 12.5,11.5C 12.9569,10.7025 13.6236,10.3691 14.5,10.5C 15.5,10.5 16.5,10.5 17.5,10.5C 17.5,9.5 17.5,8.5 17.5,7.5C 18.8333,7.16667 20.1667,6.83333 21.5,6.5C 22.5,9.16667 23.5,9.16667 24.5,6.5C 30.9847,5.16127 33.9847,7.9946 33.5,15C 33.3708,16.9806 32.7042,18.6472 31.5,20C 32.8333,22.6667 32.8333,25.3333 31.5,28C 25.8333,30.8333 20.1667,33.6667 14.5,36.5C 13.3414,32.878 13.1747,29.2113 14,25.5C 14.2492,26.624 14.7492,27.624 15.5,28.5C 17.9446,27.6876 20.2779,26.6876 22.5,25.5 Z"/></g>
<g><path style="opacity:1" fill="#c2a262" d="M 21.5,5.5 C 22.5,5.5 23.5,5.5 24.5,5.5C 24.5,5.83333 24.5,6.16667 24.5,6.5C 23.5,9.16667 22.5,9.16667 21.5,6.5C 21.5,6.16667 21.5,5.83333 21.5,5.5 Z"/></g>
<g><path style="opacity:1" fill="#c2a15f" d="M 17.5,7.5 C 17.5,8.5 17.5,9.5 17.5,10.5C 16.5,10.5 15.5,10.5 14.5,10.5C 14.5,10.1667 14.5,9.83333 14.5,9.5C 14.8212,7.95186 15.8212,7.28519 17.5,7.5 Z"/></g>
<g><path style="opacity:0.984" fill="#907aa6" d="M 24.5,4.5 C 26.8568,4.33669 29.1902,4.50335 31.5,5C 32.7014,5.90252 33.5348,7.06919 34,8.5C 34.6603,15.5767 34.1603,22.5767 32.5,29.5C 26.8333,32.3333 21.1667,35.1667 15.5,38C 11.9297,38.8035 8.76307,37.9702 6,35.5C 5.33333,28.8333 5.33333,22.1667 6,15.5C 6.86347,11.4819 9.36347,9.48189 13.5,9.5C 13.8333,9.5 14.1667,9.5 14.5,9.5C 14.5,9.83333 14.5,10.1667 14.5,10.5C 13.6236,10.3691 12.9569,10.7025 12.5,11.5C 14.6509,16.2544 15.6509,21.2544 15.5,26.5C 17.921,26.1218 20.2543,25.4552 22.5,24.5C 22.5,24.8333 22.5,25.1667 22.5,25.5C 20.2779,26.6876 17.9446,27.6876 15.5,28.5C 14.7492,27.624 14.2492,26.624 14,25.5C 13.1747,29.2113 13.3414,32.878 14.5,36.5C 20.1667,33.6667 25.8333,30.8333 31.5,28C 32.8333,25.3333 32.8333,22.6667 31.5,20C 32.7042,18.6472 33.3708,16.9806 33.5,15C 33.9847,7.9946 30.9847,5.16127 24.5,6.5C 24.5,6.16667 24.5,5.83333 24.5,5.5C 24.5,5.16667 24.5,4.83333 24.5,4.5 Z"/></g>
<g><path style="opacity:1" fill="#beb1dd" d="M 7.5,16.5 C 9.2603,19.7006 10.0936,23.3673 10,27.5C 10.1747,23.789 10.6747,20.1224 11.5,16.5C 12.6644,23.4763 12.8311,30.4763 12,37.5C 9.24575,36.2499 7.41242,34.2499 6.5,31.5C 7.33051,26.5338 7.66384,21.5338 7.5,16.5 Z"/></g>
<g><path style="opacity:1" fill="#cbb066" d="M 22.5,25.5 C 22.5,25.1667 22.5,24.8333 22.5,24.5C 23.8068,23.8466 25.1401,23.1799 26.5,22.5C 27.5943,26.2752 26.261,27.2752 22.5,25.5 Z"/></g>
</svg>
